<svg id="Capa_1" enable-background="new 0 0 512 512" height="512" viewBox="0 0 512 512" width="512" xmlns="http://www.w3.org/2000/svg"><g><path d="m462.455 211 37.293-30c-32.032-104.222-129.023-181-243.748-181-11.111 0-21.976.95-33.712 2.329l-199.482 358.671c41.045 88.396 129.838 151 233.194 151 114.725 0 211.716-76.778 243.748-181l-37.293-30z" fill="#4da6ff"/><path d="m499.748 331-37.293-30v-90l37.293-30c-32.032-104.222-129.023-181-243.748-181v512c114.725 0 211.716-76.778 243.748-181z" fill="#37f"/><path d="m499.748 181h-37.293l-63.164 31.582-38.291 37.207v45.483l71.455 35.728h67.293c7.29-23.718 12.252-48.893 12.252-75s-4.962-51.282-12.252-75z" fill="#59c36a"/><g><path d="m325.272 121h-24.272v-24.272l-45-22.495-17.124-8.56-15.588-63.344c-125.345 16.09-223.288 123.95-223.288 253.671 0 37.476 9.286 72.949 23.806 105h58.405l26.748-26.748 60 30 48.252-48.252-36.211-36.211v-8.789h54.272l20.728-41.455 6.709-13.418 56.25 28.125 45.293-45.293z" fill="#97de3d"/><path d="m318.959 244.252 45.293-45.293-38.98-77.959h-24.272v-24.272l-45-22.495v155.312l6.709-13.418z" fill="#59c36a"/><path d="m322.211 361-30-30h-36.211-6.211l-38.789 38.789v42.422l40.942 40.957 4.058-1.353 105-35.004v-55.811z" fill="#97de3d"/><path d="m361 361h-38.789l-30-30h-36.211v120.815l105-35.004z" fill="#59c36a"/></g></g></svg>