<?xml version="1.0" encoding="iso-8859-1"?>
<!-- Generator: Adobe Illustrator 19.0.0, SVG Export Plug-In . SVG Version: 6.00 Build 0)  -->
<svg version="1.1" id="Layer_1" xmlns="http://www.w3.org/2000/svg" xmlns:xlink="http://www.w3.org/1999/xlink" x="0px" y="0px"
	 viewBox="0 0 512 512" style="enable-background:new 0 0 512 512;" xml:space="preserve">
<g>
	<g>
		<path d="M375.467,22.164c-60.061,0-99.769,32.795-119.467,54.493c-19.697-21.696-59.406-54.493-119.467-54.493
			C54.581,22.164,0,98.373,0,183.744c0,63.878,32.211,188.323,247.931,304.064c5.037,2.703,11.098,2.705,16.138,0
			C479.79,372.066,512,247.622,512,183.744C512,96.392,455.803,22.164,375.467,22.164z M256,453.348
			C152.381,396.376,34.133,301.45,34.133,183.744c0-65.477,39.319-127.446,102.4-127.446c47.857,0,87.452,29.344,104.973,56.973
			c6.679,10.743,22.365,10.732,29.017-0.046c0.352-0.569,35.938-56.928,104.944-56.928c63.551,0,102.4,62.591,102.4,127.446
			C477.867,301.452,359.622,396.375,256,453.348z"/>
	</g>
</g>
<g>
</g>
<g>
</g>
<g>
</g>
<g>
</g>
<g>
</g>
<g>
</g>
<g>
</g>
<g>
</g>
<g>
</g>
<g>
</g>
<g>
</g>
<g>
</g>
<g>
</g>
<g>
</g>
<g>
</g>
</svg>
